<svg xmlns="http://www.w3.org/2000/svg" width="1118" height="92" fill="none"><path fill="url(#a)" fill-rule="evenodd" d="M32.64 91.64c-6.656 0-12.97-1.11-18.944-3.328C7.808 86.008 3.243 83.064 0 79.48l2.944-4.864c3.072 3.157 7.253 5.845 12.544 8.064 5.376 2.133 11.05 3.2 17.024 3.2 5.973 0 10.837-.768 14.592-2.304 3.84-1.621 6.656-3.755 8.448-6.4 1.877-2.645 2.816-5.59 2.816-8.832 0-3.84-1.024-6.912-3.072-9.216-2.048-2.304-4.736-4.139-8.064-5.504-3.328-1.365-6.955-2.517-10.88-3.456a804.507 804.507 0 0 1-11.904-2.944c-4.01-1.11-7.68-2.517-11.008-4.224-3.328-1.707-6.016-4.01-8.064-6.912-1.963-2.987-2.944-6.827-2.944-11.52 0-4.267 1.11-8.192 3.328-11.776 2.219-3.584 5.675-6.485 10.368-8.704C20.821 1.869 26.838.76 34.176.76c4.95 0 9.813.725 14.592 2.176 4.864 1.45 9.003 3.413 12.416 5.888l-2.432 5.248a40.457 40.457 0 0 0-12.16-5.632c-4.267-1.28-8.405-1.92-12.416-1.92-5.717 0-10.453.81-14.208 2.432-3.755 1.621-6.528 3.797-8.32 6.528-1.792 2.645-2.688 5.632-2.688 8.96 0 3.84.981 6.912 2.944 9.216 2.048 2.304 4.736 4.139 8.064 5.504 3.328 1.365 6.997 2.517 11.008 3.456 4.01.939 7.979 1.963 11.904 3.072 3.925 1.024 7.552 2.39 10.88 4.096 3.328 1.707 6.016 4.01 8.064 6.912 2.048 2.901 3.072 6.656 3.072 11.264 0 4.181-1.152 8.107-3.456 11.776-2.304 3.584-5.845 6.485-10.624 8.704-4.693 2.133-10.752 3.2-18.176 3.2Zm117.936 0c-6.656 0-12.843-1.11-18.56-3.328-5.632-2.304-10.539-5.504-14.72-9.6-4.181-4.096-7.424-8.875-9.728-14.336-2.304-5.547-3.456-11.605-3.456-18.176 0-6.57 1.152-12.587 3.456-18.048 2.304-5.547 5.547-10.368 9.728-14.464 4.267-4.096 9.216-7.253 14.848-9.472C137.776 1.912 143.92.76 150.576.76c6.315 0 12.203 1.024 17.664 3.072 5.547 2.048 10.283 5.163 14.208 9.344l-4.096 4.224c-3.84-3.755-8.107-6.443-12.8-8.064-4.608-1.707-9.515-2.56-14.72-2.56-5.717 0-11.051.981-16 2.944-4.864 1.963-9.131 4.736-12.8 8.32-3.584 3.584-6.4 7.765-8.448 12.544-1.963 4.779-2.944 9.984-2.944 15.616s.981 10.837 2.944 15.616c2.048 4.779 4.864 8.96 8.448 12.544 3.669 3.584 7.936 6.357 12.8 8.32 4.949 1.963 10.283 2.944 16 2.944 5.205 0 10.112-.81 14.72-2.432 4.693-1.707 8.96-4.48 12.8-8.32l4.096 4.224c-3.925 4.181-8.661 7.339-14.208 9.472-5.461 2.048-11.349 3.072-17.664 3.072ZM302.873 1.4h-6.528v41.216h-59.904V1.4h-6.528V91h6.528V48.376h59.904V91h6.528V1.4Zm56.89 0h5.504l40.126 69.263L445.395 1.4h5.376l.128 89.6h-6.4l-.123-76.659-37.509 64.755h-3.2L366.163 14.56V91h-6.4V1.4Zm180.743 0h-6.528L492.762 91h7.04l10.956-24.155 3.214-7.345.119-.001L537.18 8.595l23.522 51.685h-.128l2.59 5.504h.042L574.682 91h7.04L540.506 1.4Zm83.082 0h5.504l60.928 77.778V1.4h6.528V91h-5.376l-61.056-77.785V91h-6.528V1.4Zm123.194 88.576c1.109 1.024 2.389 1.536 3.84 1.536s2.688-.512 3.712-1.536c1.109-1.11 1.664-2.432 1.664-3.968s-.555-2.816-1.664-3.84c-1.024-1.024-2.261-1.536-3.712-1.536s-2.731.512-3.84 1.536c-1.024 1.024-1.536 2.304-1.536 3.84s.512 2.859 1.536 3.968ZM804.663 1.4h35.456c9.472 0 17.792 1.92 24.96 5.76 7.168 3.84 12.715 9.13 16.64 15.872 4.011 6.741 6.016 14.464 6.016 23.168 0 8.704-2.005 16.427-6.016 23.168-3.925 6.741-9.472 12.032-16.64 15.872-7.168 3.84-15.488 5.76-24.96 5.76h-35.456V42.6h6.528v42.512h28.416c8.448 0 15.787-1.664 22.016-4.992 6.229-3.328 11.051-7.893 14.464-13.696 3.413-5.888 5.12-12.63 5.12-20.224 0-7.595-1.707-14.293-5.12-20.096-3.413-5.888-8.235-10.496-14.464-13.824-6.229-3.328-13.568-4.992-22.016-4.992h-28.416V7.3h-6.528V1.4Zm137.878 83.65v.062h55.296V91h-61.824v-5.95h6.528ZM949 48.376h41.285v-5.76h-47.744V42.6h-6.528v5.75H949v.026ZM942.541 7.3v-.012h53.376V1.4h-59.904v5.9h6.528Zm88.599-5.9h7.17l36.16 81.185L1110.76 1.4h6.78L1077.6 91h-6.52l-39.94-89.6Z" clip-rule="evenodd"/><defs><linearGradient id="a" x1="-17.841" x2="1118.47" y1="46" y2="45.999" gradientUnits="userSpaceOnUse"><stop stop-color="#172554"/><stop offset="1" stop-color="#0891B2"/></linearGradient></defs></svg>